grf
version=1
nRows=9
nColumns=37
inDegrees=no
endheader
time	ground_force_1_vx	ground_force_1_vy	ground_force_1_vz	ground_force_1_px	ground_force_1_py	ground_force_1_pz	ground_moment_1_mx	ground_moment_1_my	ground_moment_1_mz	ground_force_2_vx	ground_force_2_vy	ground_force_2_vz	ground_force_2_px	ground_force_2_py	ground_force_2_pz	ground_moment_2_mx	ground_moment_2_my	ground_moment_2_mz	ground_force_3_vx	ground_force_3_vy	ground_force_3_vz	ground_force_3_px	ground_force_3_py	ground_force_3_pz	ground_moment_3_mx	ground_moment_3_my	ground_moment_3_mz	ground_force_4_vx	ground_force_4_vy	ground_force_4_vz	ground_force_4_px	ground_force_4_py	ground_force_4_pz	ground_moment_4_mx	ground_moment_4_my	ground_moment_4_mz
      0.00000000	      0.00000000	     -0.00000000	      0.00000000	      0.00000000	      0.00000000	      0.00000000	      0.00000000	      0.00000000	      0.00000000	     -3.78657484	     33.29832077	   -485.96276855	   -268.87100575	  -1032.85319945	      0.00000000	      0.00000000	      0.00000000	   1165.79401954	     -5.10854788	    -24.02961114	   -393.31326294	   -311.92927852	   -736.89726542	      0.00000000	      0.00000000	     -0.00000000	  -2258.50089537	      0.00000000	     -0.00000000	      0.00000000	      0.00000000	      0.00000000	      0.00000000	      0.00000000	      0.00000000	      0.00000000
      0.01000000	      0.00000000	     -0.00000000	      0.00000000	      0.00000000	      0.00000000	      0.00000000	      0.00000000	      0.00000000	      0.00000000	     -3.74339318	     33.07427216	   -487.59902954	   -268.43567672	  -1033.53170126	      0.00000000	      0.00000000	      0.00000000	   1200.40434555	     -5.09923763	    -23.97445443	   -392.27828979	   -310.78486032	   -736.40917460	      0.00000000	      0.00000000	     -0.00000000	  -2357.58098262	      0.00000000	     -0.00000000	      0.00000000	      0.00000000	      0.00000000	      0.00000000	      0.00000000	      0.00000000	      0.00000000
      0.02000000	      0.00000000	     -0.00000000	      0.00000000	      0.00000000	      0.00000000	      0.00000000	      0.00000000	      0.00000000	      0.00000000	     -3.92154646	     32.97082520	   -488.07998657	   -268.28437322	  -1033.04455874	      0.00000000	      0.00000000	      0.00000000	   1259.44454136	     -5.58878153	    -23.75853299	   -389.41601562	   -310.25547694	   -736.77041354	      0.00000000	      0.00000000	     -0.00000000	  -2360.15443098	      0.00000000	     -0.00000000	      0.00000000	      0.00000000	      0.00000000	      0.00000000	      0.00000000	      0.00000000	      0.00000000
      0.03000000	      0.00000000	     -0.00000000	      0.00000000	      0.00000000	      0.00000000	      0.00000000	      0.00000000	      0.00000000	      0.00000000	     -3.61105108	     34.13299942	   -489.84494019	   -267.35480619	  -1033.48823558	      0.00000000	      0.00000000	      0.00000000	   1246.28223447	     -6.02103250	    -23.75853295	   -386.85998535	   -310.02713261	   -736.96820423	      0.00000000	     -0.00000000	     -0.00000000	  -2258.37091538	      0.00000000	     -0.00000000	      0.00000000	      0.00000000	      0.00000000	      0.00000000	      0.00000000	      0.00000000	      0.00000000
      0.04000000	      0.00000000	     -0.00000000	      0.00000000	      0.00000000	      0.00000000	      0.00000000	      0.00000000	      0.00000000	      0.00000000	     -3.68759513	     34.21771622	   -491.42504883	   -266.80479731	  -1034.49182190	      0.00000000	      0.00000000	      0.00000000	   1162.29982993	     -5.73184842	    -23.83888957	   -385.99499512	   -310.00333171	   -736.14882754	      0.00000000	      0.00000000	     -0.00000000	  -2272.61594215	      0.00000000	     -0.00000000	      0.00000000	      0.00000000	      0.00000000	      0.00000000	      0.00000000	      0.00000000	      0.00000000
      0.05000000	      0.00000000	     -0.00000000	      0.00000000	      0.00000000	      0.00000000	      0.00000000	      0.00000000	      0.00000000	      0.00000000	     -3.78925514	     34.84999084	   -490.39901733	   -265.73180758	  -1033.77461796	      0.00000000	      0.00000000	      0.00000000	   1155.88436442	     -5.06491437	    -23.45149759	   -382.65365601	   -310.18583323	   -737.12252532	      0.00000000	      0.00000000	      0.00000000	  -2411.78976372	      0.00000000	     -0.00000000	      0.00000000	      0.00000000	      0.00000000	      0.00000000	      0.00000000	      0.00000000	      0.00000000
      0.06000000	      0.00000000	     -0.00000000	      0.00000000	      0.00000000	      0.00000000	      0.00000000	      0.00000000	      0.00000000	      0.00000000	     -3.61535072	     35.03754425	   -491.60809326	   -265.37757556	  -1035.13206271	      0.00000000	      0.00000000	      0.00000000	   1066.35986487	     -4.57530419	    -23.67021139	   -380.79376221	   -311.03147434	   -737.89439623	      0.00000000	      0.00000000	     -0.00000000	  -2406.80034238	      0.00000000	     -0.00000000	      0.00000000	      0.00000000	      0.00000000	      0.00000000	      0.00000000	      0.00000000	      0.00000000
      0.07000000	      0.00000000	     -0.00000000	      0.00000000	      0.00000000	      0.00000000	      0.00000000	      0.00000000	      0.00000000	      0.00000000	     -3.15964770	     35.74617004	   -492.35220337	   -265.18563821	  -1034.71780748	      0.00000000	      0.00000000	      0.00000000	   1145.61465905	     -3.81926265	    -23.45174565	   -379.69314575	   -312.42193142	   -736.86637122	      0.00000000	     -0.00000000	     -0.00000000	  -2350.32955158	      0.00000000	     -0.00000000	      0.00000000	      0.00000000	      0.00000000	      0.00000000	      0.00000000	      0.00000000	      0.00000000
      0.08000000	      0.00000000	     -0.00000000	      0.00000000	      0.00000000	      0.00000000	      0.00000000	      0.00000000	      0.00000000	      0.00000000	     -3.63605714	     36.05069351	   -492.70626831	   -265.32284356	  -1034.42636875	      0.00000000	      0.00000000	      0.00000000	    835.15525513	     -2.88063752	    -23.14518903	   -377.98574829	   -313.86458736	   -737.29557356	      0.00000000	      0.00000000	     -0.00000000	  -2255.04187873	      0.00000000	     -0.00000000	      0.00000000	      0.00000000	      0.00000000	      0.00000000	      0.00000000	      0.00000000	      0.00000000
